<svg t="1722615044725" class="icon" viewBox="0 0 1148 1024" version="1.1" xmlns="http://www.w3.org/2000/svg" p-id="4283" width="35" xmlns:xlink="http://www.w3.org/1999/xlink">
    <path d="M1.434149 0.717075H1118.63627c24.380534 0 29.400056 4.660984 29.400056 29.400055v964.465246c0 24.739071-5.019522 29.758593-29.400056 29.400056H30.11713c-24.380534 0-29.400056-4.660984-29.400055-29.400056C1.434149 662.576868 1.434149 331.646971 1.434149 0.717075z" fill="#FEFEFE" p-id="4284"></path>
    <path d="M543.542495 205.083316c76.368438 0 153.095413-3.226835 229.46385 0 81.746497 4.660984 146.641742 90.351391 143.414907 186.439378 0 32.626891 2.151224 48.043994 40.514711 57.007426 95.012375 24.380534 153.812487 134.810012 138.036847 239.502893-18.285401 119.39291-107.56118 188.590602-211.536987 179.268633-60.592798-5.019522-121.90267 0-183.929617-4.660984a244.163878 244.163878 0 0 0 117.95876-147.000279c33.343966-124.053894-40.514711-250.976086-143.414906-271.41271-23.66346-4.660984-20.436624-20.795161-21.153699-35.853727a228.746776 228.746776 0 0 0-109.353866-203.29063z" fill="#00E1D0" p-id="4285"></path>
    <path d="M63.819633 631.742663c51.629366 8.604894 50.553755-15.417102 48.761069-51.270829-6.453671-135.527087 90.709928-258.863906 207.234539-264.241965 20.436624 0 19.361012-15.058565 25.097609-26.173221a120.468521 120.468521 0 0 1 110.788015-68.12208 128.356341 128.356341 0 0 1 123.33682 50.553754c15.77564 22.587848 19.361012 35.853727-16.492715 46.968382a258.505369 258.505369 0 0 0-175.68326 289.698111c4.660984 22.587848 17.926863 19.71955 32.626891 20.436624 9.321969 0 21.512236-4.302447 26.531758 5.378059s-6.453671 19.71955-12.190267 27.60737c-25.814683 35.853727-52.346441 71.707453-78.878199 105.768493-7.170745 9.321969-13.265879 22.587848-29.041518 13.982953l-258.863906-139.470996z" fill="#107DFE" p-id="4286"></path>
</svg>